<?xml version="1.0" encoding="UTF-8" standalone="no"?>
<!DOCTYPE svg PUBLIC "-//W3C//DTD SVG 1.1//EN" "http://www.w3.org/Graphics/SVG/1.1/DTD/svg11.dtd">
<svg width="100%" height="100%" viewBox="0 0 20 20" version="1.1" xmlns="http://www.w3.org/2000/svg" xmlns:xlink="http://www.w3.org/1999/xlink" xml:space="preserve" xmlns:serif="http://www.serif.com/" style="fill-rule:evenodd;clip-rule:evenodd;stroke-linejoin:round;stroke-miterlimit:2;">
    <g transform="matrix(1,0,0,1,1.99999,1.13851)">
        <path d="M7,14.309L7,1C7,0.448 7.448,0 8,0C8.552,-0 9,0.448 9,1L9,14.309L13.657,9.652C14.047,9.261 14.681,9.261 15.071,9.652C15.462,10.043 15.462,10.676 15.071,11.066L8.707,17.43C8.317,17.821 7.683,17.821 7.293,17.43L0.929,11.066C0.538,10.676 0.538,10.043 0.929,9.652C1.319,9.261 1.953,9.261 2.343,9.652L7,14.309Z" style="fill:rgb(242,247,240);"/>
    </g>
</svg>
