<?xml version="1.0" encoding="UTF-8" standalone="no"?>
<!DOCTYPE svg PUBLIC "-//W3C//DTD SVG 1.1//EN" "http://www.w3.org/Graphics/SVG/1.1/DTD/svg11.dtd">
<svg width="100%" height="100%" viewBox="0 0 50 50" version="1.1" xmlns="http://www.w3.org/2000/svg" xmlns:xlink="http://www.w3.org/1999/xlink" xml:space="preserve" xmlns:serif="http://www.serif.com/" style="fill-rule:evenodd;clip-rule:evenodd;stroke-linejoin:round;stroke-miterlimit:2;">
    <g transform="matrix(0.878416,0,0,0.878416,0.65503,1.21118)">
        <path d="M37.72,29.201C37.72,30.782 37.826,32.342 37.636,33.881C37.446,35.589 36.624,36.896 35.254,37.95C33.609,39.215 32.07,40.649 30.468,41.977C30.173,42.23 29.877,42.715 29.456,42.525C29.097,42.336 29.308,41.83 29.287,41.45C29.266,40.839 29.287,40.248 29.287,39.637L29.287,37.739C29.266,36.053 29.983,34.703 31.269,33.67C33.145,32.152 34.958,30.571 36.772,28.969C36.961,28.8 37.151,28.61 37.425,28.674C37.699,28.737 37.72,28.99 37.72,29.201ZM29.456,32.047C29.203,31.92 29.287,31.604 29.266,31.372L29.266,29.138C29.266,28.653 29.287,28.147 29.266,27.662C29.203,25.996 29.772,24.605 31.058,23.508C33.019,21.822 35.001,20.156 36.961,18.491C37.404,18.111 37.699,18.216 37.699,18.786C37.699,20.515 37.868,22.243 37.552,23.972C37.32,25.216 36.729,26.249 35.76,27.05C33.883,28.61 32.028,30.192 30.151,31.773C29.962,31.942 29.772,32.216 29.456,32.047ZM29.287,16.825C29.287,15.476 29.751,14.253 30.742,13.367C32.724,11.554 34.79,9.825 36.856,8.097C37.404,7.633 37.699,7.759 37.699,8.392C37.72,9.804 37.741,11.238 37.657,12.672C37.552,14.379 36.793,15.729 35.422,16.804C33.609,18.216 31.965,19.861 30.13,21.252C29.92,21.4 29.751,21.758 29.456,21.611C29.118,21.463 29.266,21.084 29.266,20.789C29.245,20.093 29.266,19.418 29.266,18.722L29.287,18.722L29.287,16.825ZM31.374,9.003C31.691,9.298 31.501,9.699 31.185,9.973C30.383,10.669 29.582,11.386 28.76,12.06C28.401,12.355 28.022,12.208 27.706,11.955C26.926,11.301 26.146,10.669 25.366,10.015C25.028,9.72 24.944,9.319 25.239,8.982C26.019,8.075 27.01,7.38 27.959,6.684C28.022,6.621 28.127,6.621 28.233,6.6C28.317,6.621 28.465,6.621 28.549,6.684C29.582,7.359 30.51,8.16 31.374,9.003ZM7.403,26.312C2.617,23.761 -0.293,18.659 0.023,13.177C0.445,5.735 6.749,0 14.191,0L40.545,0C48.304,0 54.587,6.283 54.587,14.041L54.587,19.08C54.587,20.704 53.258,22.032 51.635,22.032L46.048,22.032L46.048,15.644C46.048,11.301 43.961,7.759 39.618,7.759L39.238,7.759C39.069,7.253 38.753,6.81 38.31,6.494L38.163,6.388C37.973,6.262 37.783,6.22 37.657,6.198C37.636,6.198 37.594,6.177 37.572,6.177L37.404,6.135L37.235,6.177C37.193,6.198 37.172,6.198 37.151,6.198C37.024,6.22 36.813,6.262 36.603,6.388C35.991,6.789 35.359,7.253 34.726,7.78L32.449,7.78C31.226,6.62 30.151,5.756 29.076,5.06C28.886,4.933 28.675,4.891 28.528,4.87C28.486,4.849 28.465,4.849 28.443,4.849L28.275,4.807L28.106,4.849C28.085,4.87 28.043,4.87 28.022,4.87C27.895,4.891 27.706,4.933 27.516,5.06C27.368,5.165 27.242,5.271 27.094,5.376C26.103,6.093 25.091,6.831 24.206,7.759L22.055,7.759C21.402,7.21 20.79,6.768 20.179,6.367C19.968,6.241 19.757,6.198 19.61,6.177C19.568,6.156 19.546,6.156 19.525,6.156L19.357,6.114L19.188,6.156C19.167,6.177 19.125,6.177 19.104,6.177C18.977,6.198 18.787,6.241 18.598,6.367L18.45,6.473C17.944,6.852 17.586,7.379 17.438,7.969C13.243,8.918 9.701,12.65 9.701,16.993C9.701,18.427 10.038,19.839 10.67,21.125L10.649,21.146L10.902,21.61C10.902,21.631 10.923,21.652 10.923,21.652C11.324,22.306 11.851,22.981 12.526,23.676L12.547,23.697C12.547,23.719 12.568,23.719 12.589,23.74C12.737,23.887 12.905,24.056 13.095,24.225L13.158,24.288C13.496,24.604 13.854,24.92 14.233,25.237L14.255,25.258C14.423,25.405 14.613,25.553 14.782,25.679L14.866,25.743C15.203,25.996 15.562,26.27 15.962,26.565L16.068,26.628C16.215,26.733 16.363,26.839 16.51,26.944L16.637,27.029C16.785,27.155 16.953,27.261 17.101,27.366C17.248,27.492 17.291,27.619 17.269,27.703C17.248,27.767 17.143,27.809 17.016,27.83L16.848,27.851C16.7,27.872 16.489,27.893 16.236,27.914L16.152,27.914C13.854,28.125 10.46,28.02 7.445,26.333L7.403,26.312ZM48.009,27.893C52.816,30.465 55.704,35.546 55.409,40.986C54.987,48.428 48.683,54.163 41.241,54.163L15.498,54.163C7.74,54.163 1.457,47.88 1.457,40.121L1.457,35.146C1.457,33.522 2.785,32.194 4.409,32.194L9.996,32.194L9.996,38.582C9.996,42.946 13.517,46.467 17.881,46.467L23.173,46.467C24.353,46.425 25.323,45.434 25.323,44.232L25.323,42.841C25.281,42.187 25.239,41.597 25.112,41.049C25.007,40.733 24.88,40.437 24.691,40.163C23.805,39.425 22.941,38.688 22.055,37.95C21.971,37.886 21.908,37.844 21.823,37.781C21.022,37.212 20.453,36.516 20.095,35.715C20.095,35.715 20.074,35.694 20.074,35.673C20.031,35.588 20.01,35.504 19.968,35.42C19.884,35.209 19.821,34.998 19.757,34.787C19.715,34.619 19.673,34.45 19.631,34.281C19.399,33.1 19.441,31.92 19.462,30.655L19.462,30.592L19.441,29.748L19.441,29.685L19.462,29.706C19.441,29.495 19.441,29.263 19.504,29.074C19.546,28.652 19.778,28.568 20.116,28.799C20.2,28.842 20.263,28.905 20.348,28.989C21.064,29.601 21.802,30.212 22.519,30.824C23.341,31.519 24.185,32.215 25.028,32.911C25.197,33.058 25.386,33.332 25.661,33.185C25.745,33.143 25.787,33.079 25.829,33.016C25.871,32.784 25.85,32.594 25.829,32.468C25.808,32.426 25.808,32.405 25.808,32.363C25.787,32.131 25.745,31.878 25.682,31.646C25.408,30.697 24.838,29.938 24.142,29.284C23.89,29.074 23.615,28.842 23.362,28.631L23.341,28.61C22.688,28.104 22.097,27.535 21.444,27.029C20.811,26.544 20.369,25.911 20.074,25.237C19.926,24.941 19.821,24.604 19.736,24.267C19.694,24.119 19.652,23.95 19.631,23.803C19.399,22.622 19.441,21.442 19.462,20.177C19.483,19.987 19.483,19.776 19.483,19.586L19.483,19.439C19.462,19.397 19.462,19.354 19.462,19.312L19.462,19.228L19.483,19.249C19.483,19.207 19.483,19.144 19.504,19.08L19.504,18.743C19.504,18.174 19.799,18.068 20.242,18.448C21.992,19.945 23.742,21.42 25.492,22.896C25.576,22.917 25.661,22.917 25.766,22.854C25.808,22.812 25.85,22.77 25.871,22.728C25.892,22.496 25.871,22.285 25.85,22.158C25.829,22.116 25.829,22.074 25.829,22.032C25.808,21.695 25.766,21.399 25.682,21.104C25.281,19.839 24.248,18.975 23.236,18.089C22.266,17.225 21.17,16.529 20.453,15.412C20.411,15.327 20.369,15.264 20.327,15.18C20.327,15.159 20.305,15.159 20.305,15.138C20.242,15.032 20.179,14.927 20.137,14.821C20.116,14.758 20.095,14.716 20.074,14.653C20.031,14.568 19.989,14.505 19.968,14.421C19.947,14.379 19.947,14.336 19.926,14.294C19.884,14.168 19.842,14.041 19.799,13.915L19.799,13.873C19.778,13.831 19.778,13.788 19.757,13.746C19.757,13.725 19.736,13.683 19.736,13.662L19.715,13.535C19.715,13.514 19.694,13.493 19.694,13.451C19.694,13.43 19.673,13.388 19.673,13.367C19.652,13.346 19.652,13.325 19.652,13.303C19.42,12.123 19.462,10.942 19.483,9.677C19.504,9.382 19.504,9.066 19.504,8.749L19.525,8.771L19.525,8.243C19.525,7.674 19.821,7.569 20.263,7.948C22.224,9.635 24.206,11.301 26.167,12.966C26.546,13.303 26.862,13.662 27.115,14.041C27.136,14.105 27.179,14.147 27.221,14.21C27.263,14.273 27.284,14.336 27.326,14.4C27.389,14.526 27.432,14.632 27.495,14.758C27.516,14.821 27.537,14.864 27.558,14.927C27.6,15.053 27.663,15.201 27.706,15.349C27.706,15.37 27.727,15.391 27.727,15.412C27.938,16.129 28.022,16.866 28.022,17.647C28.043,22.348 28.022,27.05 28.022,31.751L28.022,44.928C28.022,45.771 28.718,46.467 29.561,46.467L37.024,46.467C42.148,46.467 45.753,42.314 45.753,37.212C45.753,35.778 45.415,34.366 44.783,33.079L44.804,33.058L44.53,32.594C44.53,32.573 44.509,32.552 44.509,32.552C44.108,31.899 43.581,31.224 42.907,30.528L42.885,30.507C42.885,30.486 42.864,30.486 42.843,30.465C42.675,30.296 42.527,30.149 42.337,29.98L42.274,29.917C41.937,29.601 41.578,29.284 41.199,28.968L41.157,28.947C40.988,28.799 40.798,28.673 40.63,28.525L40.545,28.462C40.208,28.209 39.849,27.935 39.449,27.64L39.343,27.577C39.196,27.471 39.048,27.366 38.901,27.261L38.774,27.176C38.627,27.05 38.458,26.944 38.31,26.839C38.163,26.712 38.121,26.586 38.142,26.502C38.163,26.438 38.268,26.396 38.395,26.375L38.584,26.354C38.732,26.333 38.922,26.312 39.175,26.291L39.259,26.291C39.807,26.227 40.355,26.206 40.883,26.206C43.56,26.206 45.985,26.776 47.966,27.872L48.009,27.893Z" style="fill:rgb(250,253,249);"/>
    </g>
</svg>
