<?xml version="1.0" encoding="UTF-8" standalone="no"?>
<!DOCTYPE svg PUBLIC "-//W3C//DTD SVG 1.1//EN" "http://www.w3.org/Graphics/SVG/1.1/DTD/svg11.dtd">
<svg width="100%" height="100%" viewBox="0 0 93 93" version="1.1" xmlns="http://www.w3.org/2000/svg" xmlns:xlink="http://www.w3.org/1999/xlink" xml:space="preserve" xmlns:serif="http://www.serif.com/" style="fill-rule:evenodd;clip-rule:evenodd;stroke-linejoin:round;stroke-miterlimit:2;">
    <path d="M46.5,0C72.164,0 93,20.836 93,46.5C93,72.164 72.164,93 46.5,93C20.836,93 0,72.164 0,46.5C0,20.836 20.836,0 46.5,0ZM46.5,2C21.94,2 2,21.94 2,46.5C2,71.06 21.94,91 46.5,91C71.06,91 91,71.06 91,46.5C91,21.94 71.06,2 46.5,2Z" style="fill:rgb(242,247,240);"/>
    <g transform="matrix(-0.501765,0.501765,-0.501765,-0.501765,83.9974,49.3853)">
        <path d="M56.686,30.899L25.149,62.437L23.372,29.122L56.686,30.899ZM50.223,33.377L26.354,32.104C26.354,32.104 27.627,55.973 27.627,55.973L50.223,33.377Z" style="fill:rgb(242,247,240);"/>
    </g>
</svg>
